<?xml version="1.0" encoding="UTF-8"?>
<!DOCTYPE svg PUBLIC "-//W3C//DTD SVG 1.1//EN" "http://www.w3.org/Graphics/SVG/1.1/DTD/svg11.dtd">
<!-- Creator: CorelDRAW 2021 (64 Bit) -->
<svg xmlns="http://www.w3.org/2000/svg" xml:space="preserve" width="3805px" height="586px" version="1.1" style="shape-rendering:geometricPrecision; text-rendering:geometricPrecision; image-rendering:optimizeQuality; fill-rule:evenodd; clip-rule:evenodd"
viewBox="0 0 3805 586"
 xmlns:xlink="http://www.w3.org/1999/xlink"
 xmlns:xodm="http://www.corel.com/coreldraw/odm/2003">
 <defs>
  <style type="text/css">
   <![CDATA[
    .fil0 {fill:#FFCC00;fill-rule:nonzero}
   ]]>
  </style>
 </defs>
 <g id="Camada_x0020_1">
  <metadata id="CorelCorpID_0Corel-Layer"/>
  <path class="fil0" d="M281 328c-33,52 -66,90 -99,116 -33,26 -65,39 -97,39 -25,0 -46,-9 -61,-26 -16,-17 -23,-40 -23,-69 0,-46 16,-95 47,-147 31,-53 73,-100 126,-141 34,-28 73,-50 116,-69 43,-19 75,-28 95,-28 8,0 15,5 23,16 8,11 11,19 11,26 0,5 -5,7 -16,8 -6,0 -12,1 -16,1 -20,4 -40,11 -60,20 -20,10 -42,23 -66,40 -26,19 -50,41 -74,67 -23,26 -45,55 -66,87 -15,23 -25,44 -32,61 -7,17 -10,33 -10,47 0,15 3,26 10,34 7,8 17,12 29,12 26,0 56,-18 90,-55 34,-36 67,-87 101,-152 16,-31 31,-66 46,-104 2,-5 3,-8 4,-11 4,-9 8,-15 12,-18 4,-3 10,-4 18,-4 11,0 20,2 29,7 9,5 13,10 13,17 0,1 -6,15 -18,42 -12,27 -23,54 -34,82 -19,47 -34,87 -44,119 -11,33 -16,54 -16,66 0,10 3,17 9,21 6,4 18,6 36,8l-12 41 -8 0c-32,0 -55,-4 -69,-12 -14,-8 -21,-21 -21,-40 0,-14 9,-47 27,-98l1 -4z"/>
  <path id="_1" class="fil0" d="M352 481l12 -41c11,-1 21,-2 30,-4 9,-2 17,-5 24,-9 -1,-5 -2,-9 -2,-14 -1,-5 -1,-11 -1,-17 0,-23 4,-47 13,-70 9,-23 22,-44 38,-64 20,-23 41,-41 64,-53 22,-12 46,-18 70,-18 9,0 19,1 27,4 9,2 18,6 27,11l48 -132c1,-4 3,-9 6,-17 11,-33 27,-49 47,-49 16,0 28,2 35,5 7,3 10,9 10,16 0,4 -3,12 -9,24 -4,8 -7,14 -9,19l-55 127c-20,46 -37,90 -49,131 -13,41 -19,68 -19,80 0,11 3,18 9,23 6,4 18,7 36,9l-12 41 -6 0c-32,0 -54,-3 -67,-10 -13,-7 -19,-18 -19,-34 0,-7 1,-16 4,-26 3,-10 7,-24 12,-40 -21,38 -42,66 -64,84 -21,18 -44,28 -67,28 -12,0 -22,-2 -31,-6 -9,-4 -16,-9 -20,-16 -8,6 -19,11 -32,14 -13,3 -30,6 -49,7zm286 -233c-4,-2 -7,-3 -11,-4 -3,-1 -7,-1 -10,-1 -15,0 -29,5 -44,15 -15,10 -30,24 -45,44 -13,16 -24,34 -32,53 -8,19 -12,34 -12,46 0,9 2,16 7,22 4,5 10,8 18,8 18,0 38,-16 60,-47 22,-32 46,-77 70,-135z"/>
  <path id="_2" class="fil0" d="M941 291c-10,-2 -18,-5 -23,-11 -5,-6 -8,-14 -8,-24 0,-14 4,-26 12,-36 8,-9 19,-14 31,-14 14,0 24,6 32,16 8,11 11,26 11,46 0,25 -4,50 -12,75 -8,26 -19,49 -33,70 -15,23 -31,40 -49,51 -17,11 -36,17 -56,17 -14,0 -27,-2 -38,-6 -11,-4 -20,-10 -27,-17 -13,7 -27,12 -42,15 -14,4 -30,6 -47,6l12 -41c11,-1 21,-2 30,-4 9,-2 17,-5 24,-9 -2,-7 -4,-14 -5,-21 -1,-7 -2,-15 -2,-24 0,-23 5,-46 14,-70 9,-24 22,-46 38,-64 14,-17 31,-30 50,-41 20,-10 38,-16 55,-16 4,0 8,1 11,3 3,2 4,4 4,8 0,4 -5,12 -15,21 -10,10 -17,18 -23,24 -21,26 -37,53 -48,80 -11,27 -17,52 -17,76 0,11 3,20 8,26 5,6 12,9 21,9 21,0 41,-15 61,-45 20,-30 30,-64 31,-102z"/>
  <path id="_3" class="fil0" d="M971 481l12 -41c23,-2 41,-10 53,-23 13,-13 24,-37 34,-72l26 -91 -30 0c-4,0 -8,-1 -9,-2 -2,-1 -2,-3 -2,-6 0,0 0,-1 0,-2 0,-1 1,-2 1,-4l5 -15c1,-4 3,-7 6,-8 3,-1 9,-2 18,-2l23 0 30 -99c2,-5 4,-13 6,-22 6,-26 19,-40 38,-40 13,0 24,2 31,5 8,3 11,8 11,14 0,4 -2,12 -7,23 -3,6 -4,11 -6,15l-35 103 51 0c4,0 7,1 9,2 2,1 3,3 3,5 0,1 0,2 0,3 0,1 0,2 -1,2l-5 15c-1,4 -3,7 -7,8 -3,2 -9,2 -17,2l-45 0 -30 99c-4,11 -6,21 -8,29 -2,8 -2,15 -2,20 0,12 6,21 16,27 11,6 27,10 49,12l-12 41 -7 0c-27,0 -50,-3 -68,-10 -18,-6 -32,-16 -40,-28 -13,11 -28,20 -43,27 -16,7 -32,10 -48,11z"/>
  <path id="_4" class="fil0" d="M1473 255c-6,-4 -11,-7 -16,-9 -5,-2 -11,-3 -16,-3 -12,0 -26,5 -41,16 -16,10 -30,24 -45,42 -13,16 -23,34 -31,52 -8,18 -11,35 -11,48 0,10 2,17 5,22 3,5 9,7 16,7 20,0 42,-15 66,-45 24,-30 49,-73 75,-131zm-31 116c-22,39 -43,67 -65,85 -21,18 -44,27 -69,27 -12,0 -22,-2 -30,-5 -9,-3 -15,-8 -20,-14 -10,6 -22,10 -35,13 -13,3 -28,5 -46,5l12 -41c11,-1 21,-2 30,-4 9,-2 17,-5 24,-9 -1,-4 -1,-9 -2,-13 0,-4 -1,-9 -1,-15 0,-17 4,-35 11,-55 7,-20 18,-40 31,-59 20,-29 43,-52 68,-67 25,-15 50,-23 77,-23 13,0 25,2 34,6 10,4 19,10 27,19l4 -14c3,-8 5,-14 8,-16 3,-2 6,-3 12,-3 14,0 26,2 37,7 11,5 16,11 16,17 0,2 -4,12 -13,29 -9,17 -16,33 -23,49 -13,31 -24,57 -30,79 -7,22 -10,39 -10,50 0,8 3,14 8,17 5,3 17,6 35,7l-12 41 -6 0c-32,0 -54,-3 -67,-10 -13,-7 -19,-18 -19,-34 0,-7 1,-16 4,-26 3,-10 7,-24 12,-40z"/>
  <path id="_5" class="fil0" d="M1952 367c-22,79 -45,135 -69,169 -24,34 -52,51 -84,51 -24,0 -42,-10 -56,-30 -14,-20 -20,-47 -20,-82 0,-45 10,-97 31,-158 21,-60 48,-116 83,-167 33,-49 67,-86 104,-110 37,-25 75,-37 114,-37 37,0 67,12 88,36 22,24 32,57 32,100 0,23 -3,47 -10,71 -7,24 -16,48 -29,71 -16,30 -36,53 -59,69 -23,16 -48,24 -75,24 -6,0 -13,-1 -21,-2 -8,-1 -18,-3 -29,-5zm10 -50c2,0 4,0 6,1 2,0 4,0 7,0 31,0 58,-18 81,-53 23,-35 34,-77 34,-126 0,-25 -4,-44 -13,-57 -9,-13 -21,-19 -39,-19 -18,0 -38,8 -61,24 -23,16 -45,37 -65,63 -16,20 -30,43 -44,69 -14,26 -26,55 -38,86 -13,34 -23,66 -30,94 -7,28 -11,51 -11,68 0,13 2,23 5,29 3,7 8,10 15,10 17,0 34,-25 50,-75 16,-50 27,-116 33,-197 0,-2 1,-4 1,-8 1,-19 5,-31 10,-36 6,-7 15,-13 27,-19 12,-6 20,-9 24,-9 6,0 9,3 11,8 2,5 3,18 3,40l0 9c0,16 -1,32 -2,48 -1,16 -3,33 -5,49z"/>
  <path id="_6" class="fil0" d="M2263 386c21,-14 39,-32 53,-56 14,-23 22,-44 22,-61 0,-9 -2,-15 -6,-20 -4,-5 -11,-7 -19,-7 -17,0 -32,10 -45,30 -13,20 -19,43 -19,69 0,10 1,19 3,26 2,7 6,14 11,20zm-31 64c-20,9 -39,17 -59,22 -20,5 -40,8 -60,9l12 -41c14,-1 27,-3 39,-6 12,-3 23,-7 35,-12 -8,-10 -13,-22 -17,-35 -4,-13 -6,-28 -6,-46 0,-41 14,-76 42,-106 28,-30 61,-45 98,-45 21,0 38,6 50,19 12,13 18,30 18,52 0,24 -9,51 -26,79 -18,29 -41,55 -70,77 9,8 18,14 28,17 10,3 22,5 37,5l4 0 -12 41 -8 0c-23,0 -43,-3 -60,-8 -17,-5 -32,-13 -45,-23z"/>
  <path id="_7" class="fil0" d="M2345 481l12 -41c23,-2 41,-10 53,-23 13,-13 24,-37 34,-72l26 -91 -30 0c-4,0 -8,-1 -9,-2 -2,-1 -2,-3 -2,-6 0,0 0,-1 0,-2 0,-1 1,-2 1,-4l5 -15c1,-4 3,-7 6,-8 3,-1 9,-2 17,-2l23 0 30 -99c2,-5 4,-13 6,-22 6,-26 19,-40 38,-40 13,0 24,2 31,5 7,3 11,8 11,14 0,4 -2,12 -7,23 -3,6 -4,11 -6,15l-35 103 51 0c4,0 7,1 9,2 2,1 3,3 3,5 0,1 0,2 0,3 0,1 0,2 -1,2l-5 15c-1,4 -3,7 -7,8 -3,2 -9,2 -17,2l-45 0 -30 99c-4,11 -6,21 -8,29 -2,8 -2,15 -2,20 0,12 6,21 16,27 11,6 27,10 49,12l-12 41 -7 0c-27,0 -50,-3 -68,-10 -18,-6 -32,-16 -40,-28 -13,11 -27,20 -43,27 -16,7 -32,10 -48,11z"/>
  <path id="_8" class="fil0" d="M3009 414c-19,23 -37,41 -56,52 -19,11 -38,17 -58,17 -30,0 -52,-11 -68,-33 -15,-22 -23,-55 -23,-98 0,-41 7,-86 20,-135 13,-49 32,-94 56,-136 14,-26 27,-46 39,-58 12,-13 22,-19 31,-19 11,0 23,3 34,8 11,5 17,10 17,15 0,3 -7,14 -20,34 -13,20 -25,41 -36,63 -19,39 -34,80 -45,122 -11,42 -17,79 -17,111 0,22 2,38 7,48 5,9 12,14 23,14 10,0 22,-6 35,-16 14,-11 28,-27 44,-47l0 -2c-2,-15 -2,-26 -2,-33 0,-20 3,-41 9,-62 6,-21 14,-41 26,-61 10,-18 21,-32 33,-42 12,-10 24,-14 35,-14 13,0 23,4 30,12 7,8 11,19 11,32 0,21 -7,44 -20,68 -13,24 -31,44 -54,61l0 11c0,24 4,44 13,58 9,14 21,22 35,22 21,0 47,-25 76,-75 29,-50 56,-115 79,-194 -13,-12 -22,-23 -28,-33 -5,-11 -8,-23 -8,-38 0,-18 5,-32 14,-43 9,-11 21,-16 36,-16 16,0 29,6 38,19 9,13 14,29 14,51 0,6 -1,13 -2,20 -1,7 -3,15 -5,23 7,4 13,7 19,10 6,3 11,6 17,8l-21 45c-5,-2 -9,-4 -12,-5 -3,-2 -7,-3 -10,-5 -31,101 -65,178 -104,232 -39,54 -79,81 -120,81 -19,0 -35,-6 -49,-17 -14,-11 -25,-29 -34,-52z"/>
  <path id="_9" class="fil0" d="M3419 386c21,-14 39,-32 53,-56 14,-23 22,-44 22,-61 0,-9 -2,-15 -6,-20 -4,-5 -11,-7 -19,-7 -17,0 -32,10 -45,30 -13,20 -19,43 -19,69 0,10 1,19 3,26 2,7 6,14 11,20zm-31 64c-20,9 -39,17 -59,22 -20,5 -40,8 -60,9l12 -41c14,-1 27,-3 39,-6 12,-3 23,-7 35,-12 -8,-10 -13,-22 -17,-35 -4,-13 -6,-28 -6,-46 0,-41 14,-76 42,-106 28,-30 61,-45 98,-45 21,0 38,6 50,19 12,13 18,30 18,52 0,24 -9,51 -26,79 -18,29 -41,55 -70,77 9,8 18,14 28,17 10,3 23,5 37,5l4 0 -12 41 -8 0c-23,0 -43,-3 -60,-8 -17,-5 -32,-13 -45,-23z"/>
  <path id="_10" class="fil0" d="M3513 440c13,-1 24,-3 34,-6 10,-3 19,-7 27,-13 -1,-7 -1,-12 -1,-16 0,-4 0,-8 0,-11 0,-18 6,-51 18,-99 12,-47 28,-98 48,-153 21,-57 37,-93 48,-108 12,-15 25,-22 41,-22 11,0 20,4 27,12 7,8 10,18 10,31 0,21 -5,42 -16,63 -11,21 -26,42 -47,62 -19,53 -33,100 -44,140 -11,41 -16,69 -16,86 0,8 2,14 6,18 4,4 9,6 16,6 19,0 38,-14 55,-41 18,-27 27,-59 29,-96 -14,-1 -25,-5 -32,-12 -7,-7 -10,-17 -10,-30 0,-14 4,-25 12,-34 8,-9 19,-13 32,-13 16,0 30,7 40,22 10,14 15,33 15,57 0,54 -15,100 -46,140 -31,40 -66,60 -106,60 -12,0 -24,-2 -34,-6 -11,-4 -20,-10 -27,-17 -13,7 -27,12 -42,15 -14,4 -30,6 -47,6l12 -41z"/>
 </g>
</svg>
